<svg xmlns="http://www.w3.org/2000/svg" width="600" height="400" viewBox="0 0 600 400"><rect width="100%" height="100%" fill="#D4A5A5"/><path fill="#FFFFFF" d="M144.92 181.615h-17.97v11.99h15.17v6.02h-15.17v16.49h-7.56v-40.49h25.53zm17.78 5.32q3.19 0 5.81 1.04t4.48 2.94 2.87 4.65q1.01 2.74 1.01 6.13 0 3.42-1.01 6.16t-2.87 4.68q-1.86 1.93-4.48 2.96-2.62 1.04-5.81 1.04-3.22 0-5.85-1.04-2.63-1.03-4.49-2.96-1.87-1.94-2.89-4.68t-1.02-6.16q0-3.39 1.02-6.13 1.02-2.75 2.89-4.65 1.86-1.9 4.49-2.94t5.85-1.04m0 24.28q3.59 0 5.31-2.41t1.72-7.05q0-4.65-1.72-7.09-1.72-2.43-5.31-2.43-3.64 0-5.39 2.45t-1.75 7.07 1.75 7.04 5.39 2.42m25.57-22.09.42 3.25q1.34-2.58 3.19-4.05t4.37-1.47q1.98 0 3.19.87l-.45 5.18q-.14.5-.41.71-.26.21-.71.21-.42 0-1.25-.14-.82-.14-1.61-.14-1.14 0-2.04.34-.9.33-1.61.96t-1.26 1.53-1.02 2.04v17.7h-6.92v-28.73h4.06q1.07 0 1.49.38t.56 1.36m20.24 9.32h13.05q0-1.34-.38-2.53t-1.13-2.09q-.76-.89-1.92-1.41t-2.7-.52q-3 0-4.72 1.71t-2.2 4.84m17.64 4.17h-17.78q.17 2.22.78 3.83.62 1.61 1.63 2.66t2.39 1.56q1.39.52 3.07.52t2.9-.39q1.21-.39 2.12-.87.91-.47 1.6-.87.69-.39 1.33-.39.87 0 1.29.65l1.99 2.52q-1.15 1.34-2.58 2.25t-2.98 1.46q-1.56.54-3.17.77-1.61.22-3.12.22-2.99 0-5.57-.99-2.58-1-4.48-2.94-1.9-1.95-3-4.82-1.09-2.87-1.09-6.65 0-2.94.95-5.53.96-2.59 2.73-4.51 1.78-1.92 4.34-3.04 2.57-1.12 5.79-1.12 2.71 0 5.01.87 2.29.87 3.95 2.54 1.65 1.66 2.59 4.08.93 2.43.93 5.53 0 1.57-.33 2.12-.34.54-1.29.54m25.9-12.12-1.57 2.49q-.28.45-.59.63-.3.18-.78.18-.5 0-1.08-.28-.57-.28-1.33-.63-.75-.35-1.72-.63t-2.28-.28q-2.05 0-3.21.87t-1.16 2.27q0 .92.6 1.55t1.6 1.11q.99.48 2.25.85 1.26.38 2.56.83 1.31.45 2.57 1.02 1.26.58 2.25 1.46t1.6 2.11q.6 1.23.6 2.97 0 2.07-.74 3.82-.75 1.75-2.2 3.03-1.46 1.27-3.6 1.98-2.14.72-4.94.72-1.49 0-2.9-.27-1.41-.26-2.72-.74-1.3-.48-2.4-1.12-1.11-.64-1.95-1.4l1.6-2.63q.3-.48.72-.73t1.07-.25q.64 0 1.22.36.57.37 1.33.79.75.42 1.77.78 1.03.36 2.59.36 1.24 0 2.12-.29t1.45-.77q.58-.48.84-1.11.27-.63.27-1.3 0-1.01-.6-1.65t-1.6-1.12q-.99-.48-2.27-.85-1.27-.38-2.6-.83t-2.6-1.05q-1.28-.6-2.27-1.53-1-.92-1.6-2.26-.6-1.35-.6-3.25 0-1.77.7-3.36.7-1.6 2.06-2.79t3.39-1.9q2.03-.72 4.69-.72 2.96 0 5.4.98t4.06 2.58m15.09 26.07q-3.75 0-5.75-2.12-2-2.11-2-5.83v-16.05h-2.94q-.56 0-.96-.36-.39-.37-.39-1.09v-2.75l4.62-.75 1.46-7.84q.14-.56.53-.87t1.01-.31h3.58v9.04h7.67v4.93h-7.67v15.57q0 1.34.66 2.1t1.81.76q.64 0 1.07-.16.44-.15.76-.32t.57-.32q.26-.16.51-.16.31 0 .5.16.2.15.42.46l2.07 3.36q-1.51 1.26-3.47 1.9-1.96.65-4.06.65m73.92-40.94h5.91l-12.57 40.49h-6.81l-8.84-27.66q-.37-1.01-.68-2.47-.16.7-.33 1.32-.17.61-.37 1.15l-8.93 27.66h-6.83l-12.54-40.49h6.3q.98 0 1.63.46.66.47.89 1.25l6.88 24.22q.23.9.44 1.95t.43 2.19q.23-1.17.49-2.21.27-1.03.58-1.93l7.95-24.22q.22-.64.88-1.18.66-.53 1.61-.53h2.21q.98 0 1.6.48.61.47.92 1.23l7.93 24.22q.58 1.74 1.06 4 .36-2.21.81-4l6.89-24.22q.17-.7.85-1.2.69-.51 1.64-.51m15.26 22.82h13.05q0-1.34-.38-2.53t-1.13-2.09q-.76-.89-1.92-1.41t-2.7-.52q-3 0-4.72 1.71t-2.2 4.84m17.64 4.17h-17.78q.17 2.22.79 3.83.61 1.61 1.62 2.66t2.39 1.56q1.39.52 3.07.52t2.9-.39 2.13-.87q.91-.47 1.59-.87.69-.39 1.33-.39.87 0 1.29.65l1.99 2.52q-1.15 1.34-2.58 2.25t-2.98 1.46q-1.55.54-3.16.77-1.61.22-3.13.22-2.99 0-5.57-.99-2.57-1-4.48-2.94-1.9-1.95-2.99-4.82-1.1-2.87-1.1-6.65 0-2.94.96-5.53.95-2.59 2.73-4.51 1.77-1.92 4.34-3.04 2.56-1.12 5.78-1.12 2.71 0 5.01.87t3.95 2.54q1.65 1.66 2.59 4.08.94 2.43.94 5.53 0 1.57-.34 2.12-.34.54-1.29.54m12.27-4.17h13.04q0-1.34-.37-2.53-.38-1.19-1.14-2.09-.75-.89-1.92-1.41-1.16-.52-2.7-.52-2.99 0-4.72 1.71-1.72 1.71-2.19 4.84m17.64 4.17h-17.78q.16 2.22.78 3.83t1.62 2.66q1.01 1.05 2.4 1.56 1.38.52 3.06.52t2.9-.39 2.13-.87q.91-.47 1.6-.87.68-.39 1.33-.39.86 0 1.28.65l1.99 2.52q-1.15 1.34-2.57 2.25-1.43.91-2.99 1.46-1.55.54-3.16.77-1.61.22-3.12.22-3 0-5.57-.99-2.58-1-4.48-2.94-1.91-1.95-3-4.82t-1.09-6.65q0-2.94.95-5.53t2.73-4.51 4.34-3.04 5.78-1.12q2.72 0 5.01.87 2.3.87 3.95 2.54 1.65 1.66 2.59 4.08.94 2.43.94 5.53 0 1.57-.34 2.12-.33.54-1.28.54m6.8-28.11h6.92v23.83h1.28q.7 0 1.11-.18t.83-.74l7.14-8.82q.44-.59.99-.9t1.41-.31h6.33l-8.93 10.67q-.95 1.26-2.07 1.93.59.42 1.05.98t.88 1.21l9.58 13.94h-6.25q-.81 0-1.4-.27-.59-.26-.98-.96l-7.33-10.89q-.4-.65-.82-.84-.42-.2-1.26-.2h-1.56v13.16h-6.92zm30.02 0h6.91v41.61h-6.91zm34.38 12.88h5.54l-15.65 36.63q-.31.72-.8 1.1t-1.49.38h-5.16l5.38-11.54-11.62-26.57h6.08q.81 0 1.27.39.46.4.69.9l6.1 14.9q.31.75.52 1.51.21.75.4 1.54.26-.79.51-1.56t.56-1.52l5.77-14.87q.22-.56.74-.92.52-.37 1.16-.37"/></svg>