<svg xmlns="http://www.w3.org/2000/svg" width="600" height="400" viewBox="0 0 600 400"><rect width="100%" height="100%" fill="#8DA399"/><path fill="#FFFFFF" d="M163.505 179.11h5.07l-10.78 34.7h-5.83l-7.58-23.71q-.32-.87-.58-2.11-.14.6-.29 1.12-.14.53-.31.99l-7.66 23.71h-5.85l-10.75-34.7h5.4q.84 0 1.4.39.56.4.76 1.07l5.9 20.76q.19.77.37 1.67t.37 1.88q.2-1.01.42-1.89.23-.89.5-1.66l6.81-20.76q.19-.55.76-1.01.56-.45 1.38-.45h1.89q.84 0 1.37.4.53.41.79 1.06l6.8 20.76q.5 1.49.91 3.43.31-1.89.69-3.43l5.91-20.76q.14-.6.73-1.03t1.4-.43m8.6 10.08h5.95v24.62h-5.95zm6.76-7.18q0 .77-.31 1.44t-.83 1.18q-.51.5-1.21.8-.69.3-1.49.3-.76 0-1.45-.3-.68-.3-1.19-.8-.5-.51-.8-1.18t-.3-1.44q0-.79.3-1.49.3-.69.8-1.2.51-.5 1.19-.8.69-.3 1.45-.3.8 0 1.49.3.7.3 1.21.8.52.51.83 1.2.31.7.31 1.49m5.31-3.86h5.93v35.66h-5.93zm27.31 28.36v-11.04q-1.01-1.22-2.2-1.72-1.18-.51-2.55-.51-1.35 0-2.43.51-1.08.5-1.84 1.52-.77 1.02-1.18 2.59t-.41 3.71q0 2.16.35 3.66t1 2.45q.64.95 1.58 1.37t2.09.42q1.85 0 3.14-.77 1.3-.77 2.45-2.19m0-28.36h5.93v35.66h-3.63q-1.17 0-1.48-1.08l-.51-2.38q-1.49 1.71-3.42 2.76-1.93 1.06-4.5 1.06-2.01 0-3.69-.84t-2.9-2.44q-1.21-1.59-1.87-3.94-.66-2.36-.66-5.38 0-2.74.75-5.09.74-2.35 2.13-4.08t3.34-2.7q1.94-.97 4.37-.97 2.06 0 3.52.65 1.47.65 2.62 1.75zm19.44 35.66h-5.93v-20.16l-2.13-.34q-.7-.14-1.12-.49t-.42-.99v-2.43h3.67v-1.82q0-2.11.64-3.79.63-1.68 1.82-2.86t2.89-1.8q1.71-.62 3.84-.62 1.71 0 3.17.45l-.12 2.98q-.02.33-.19.54-.17.2-.44.31-.28.11-.64.14-.36.04-.77.04-1.05 0-1.88.23t-1.41.79q-.57.56-.87 1.49-.3.92-.3 2.29v1.63h6.41v4.23h-6.22zm9.62-35.66h5.93v35.66h-5.93zm22.76 10.65q2.73 0 4.98.89 2.24.89 3.84 2.52 1.59 1.63 2.46 3.98.86 2.36.86 5.26 0 2.93-.86 5.28-.87 2.35-2.46 4.01-1.6 1.65-3.84 2.54-2.25.89-4.98.89-2.76 0-5.02-.89t-3.85-2.54q-1.6-1.66-2.47-4.01-.88-2.35-.88-5.28 0-2.9.88-5.26.87-2.35 2.47-3.98 1.59-1.63 3.85-2.52t5.02-.89m0 20.81q3.07 0 4.54-2.06 1.48-2.07 1.48-6.05 0-3.99-1.48-6.07-1.47-2.09-4.54-2.09-3.12 0-4.62 2.1t-1.5 6.06 1.5 6.03q1.5 2.08 4.62 2.08m47.32-20.42h4.52l-7.83 24.62h-4.75q-.82 0-1.13-1.06l-4.41-14.23q-.22-.72-.4-1.43-.18-.7-.3-1.42-.14.72-.32 1.45t-.4 1.45l-4.49 14.18q-.29 1.06-1.27 1.06h-4.56l-7.8-24.62h4.73q.65 0 1.1.31.46.31.6.79l3.53 13.15q.26 1.08.47 2.11.2 1.04.35 2.07.26-1.03.56-2.07.3-1.03.64-2.11l4.08-13.2q.14-.48.56-.79t1.02-.31h2.62q.62 0 1.06.31.45.31.59.79l3.96 13.2q.31 1.08.59 2.13.28 1.04.54 2.07.31-2.04.89-4.2l3.62-13.15q.17-.48.6-.79t1.03-.31m12.56 9.48h11.18q0-1.16-.32-2.18-.33-1.02-.98-1.78-.64-.77-1.64-1.22-1-.44-2.32-.44-2.56 0-4.04 1.46-1.48 1.47-1.88 4.16m15.12 3.57h-15.24q.14 1.9.67 3.28t1.39 2.28 2.05 1.34q1.19.45 2.63.45t2.48-.34q1.05-.34 1.83-.74.78-.41 1.37-.75.58-.33 1.14-.33.74 0 1.1.55l1.7 2.16q-.98 1.15-2.2 1.93-1.23.78-2.56 1.25t-2.71.66-2.68.19q-2.57 0-4.77-.85-2.21-.85-3.84-2.52-1.64-1.67-2.57-4.13-.94-2.46-.94-5.7 0-2.52.82-4.74.81-2.22 2.34-3.86 1.52-1.65 3.72-2.61 2.19-.96 4.95-.96 2.33 0 4.3.75 1.97.74 3.38 2.17 1.42 1.43 2.22 3.5.81 2.08.81 4.74 0 1.35-.29 1.81-.29.47-1.1.47m11.06-11.57.36 2.79q1.15-2.21 2.74-3.47 1.58-1.26 3.74-1.26 1.7 0 2.74.74l-.39 4.44q-.12.44-.35.62-.22.18-.61.18-.36 0-1.07-.12-.7-.12-1.38-.12-.98 0-1.75.28-.77.29-1.38.83t-1.08 1.31-.87 1.75v15.17h-5.93v-24.62h3.48q.91 0 1.27.32t.48 1.16m56.09 5.79q0 3.81-1.27 7.01-1.28 3.19-3.58 5.49-2.3 2.31-5.54 3.58t-7.2 1.27h-13.23v-34.7h13.23q3.96 0 7.2 1.28t5.54 3.58q2.3 2.29 3.58 5.48 1.27 3.19 1.27 7.01m-6.63 0q0-2.86-.75-5.13-.76-2.26-2.19-3.84-1.42-1.57-3.45-2.41t-4.57-.84h-6.75v24.43h6.75q2.54 0 4.57-.84t3.45-2.41q1.43-1.57 2.19-3.84.75-2.27.75-5.12m24.39 10.99v-4.15q-2.57.12-4.32.44-1.75.33-2.81.83t-1.51 1.18q-.46.67-.46 1.46 0 1.56.93 2.23.92.67 2.41.67 1.82 0 3.15-.66 1.34-.66 2.61-2m-12.53-12.94-1.06-1.89q4.25-3.89 10.23-3.89 2.16 0 3.86.71 1.71.71 2.88 1.97 1.18 1.26 1.79 3.01t.61 3.84v15.55h-2.69q-.84 0-1.29-.25-.46-.25-.72-1.02l-.53-1.78q-.94.84-1.82 1.48-.89.63-1.85 1.07-.96.43-2.05.66-1.1.22-2.42.22-1.56 0-2.88-.42t-2.28-1.26-1.48-2.08q-.53-1.25-.53-2.91 0-.93.31-1.86.31-.92 1.02-1.76t1.84-1.59q1.12-.74 2.77-1.29 1.64-.55 3.83-.9 2.18-.35 4.99-.42v-1.44q0-2.47-1.06-3.66-1.05-1.19-3.05-1.19-1.44 0-2.38.34-.95.33-1.67.75t-1.31.76q-.59.33-1.31.33-.62 0-1.05-.32-.44-.32-.7-.76m24.07-5.32h5.95v24.62h-5.95zm6.77-7.18q0 .77-.31 1.44t-.83 1.18q-.52.5-1.21.8-.7.3-1.49.3-.77 0-1.45-.3-.69-.3-1.19-.8-.5-.51-.8-1.18t-.3-1.44q0-.79.3-1.49.3-.69.8-1.2.5-.5 1.19-.8.68-.3 1.45-.3.79 0 1.49.3.69.3 1.21.8.52.51.83 1.2.31.7.31 1.49m5.3-3.86h5.93v35.66h-5.93zm29.48 11.04h4.75l-13.42 31.39q-.26.62-.68.95-.42.32-1.29.32h-4.41l4.61-9.89-9.96-22.77h5.2q.7 0 1.1.33.39.34.58.77l5.24 12.77q.26.65.44 1.29.18.65.35 1.32.21-.67.43-1.33t.48-1.31l4.94-12.74q.2-.48.64-.79t1-.31"/></svg>